<?xml version="1.0" standalone="no"?>
<!DOCTYPE svg PUBLIC "-//W3C//DTD SVG 20010904//EN"
 "http://www.w3.org/TR/2001/REC-SVG-20010904/DTD/svg10.dtd">
<svg version="1.0" xmlns="http://www.w3.org/2000/svg"
 width="24.000000pt" height="24.000000pt" viewBox="0 0 24.000000 24.000000"
 preserveAspectRatio="xMidYMid meet">

<g transform="translate(0.000000,24.000000) scale(0.100000,-0.100000)"
fill="#000000" stroke="none">
<path d="M110 165 l0 -75 -55 0 c-30 0 -55 -4 -55 -10 0 -5 25 -10 55 -10 l55
0 0 -35 c0 -19 5 -35 10 -35 6 0 10 32 10 75 l0 75 55 0 c30 0 55 5 55 10 0 6
-25 10 -55 10 l-55 0 0 35 c0 19 -4 35 -10 35 -6 0 -10 -32 -10 -75z"/>
</g>
</svg>
